<svg width="96" height="24" viewBox="0 0 96 24" fill="none" xmlns="http://www.w3.org/2000/svg">
<path d="M39.5026 12.0645C41.5647 11.6779 42.8212 10.3245 42.8212 8.39138C42.8212 6.1037 40.9848 4.23486 38.1817 4.23486H31.6086V20.055H38.8582C41.6613 20.055 43.5301 18.2507 43.5301 15.8987C43.5301 13.8043 41.9514 12.3221 39.5026 12.0645ZM34.0253 6.42606H37.9882C39.5026 6.42606 40.5015 7.39259 40.5015 8.74581C40.5015 10.067 39.5027 11.0978 37.9882 11.0978H34.0253V6.42606ZM38.4716 17.8641H34.0253V13.1921H38.4716C40.018 13.1921 41.0169 14.1909 41.0169 15.5119C41.0169 16.8653 40.018 17.8641 38.4716 17.8641Z" fill="#202022"/>
<path d="M48.2343 11.549V8.52026L45.8499 9.26147V20.0551H48.2343V13.5144C48.2343 11.3235 50.1997 9.97025 52.745 10.679V8.42378C50.8762 7.97258 49.0398 8.68135 48.2343 11.549Z" fill="#202022"/>
<path d="M54.5172 9.26147V20.0551H56.8694V8.52025L54.5172 9.26147ZM55.7092 3.71948C54.9037 3.71948 54.2273 4.36393 54.2273 5.20163C54.2273 6.00716 54.9038 6.65132 55.7092 6.65132C56.5147 6.65132 57.1914 6.00707 57.1914 5.20163C57.1915 4.36393 56.5148 3.71948 55.7092 3.71948Z" fill="#202022"/>
<path d="M66.052 8.29468C64.0543 8.29468 62.5401 9.51906 61.9279 11.4845V8.52028L59.5435 9.26149V20.0552H61.9279V13.5144C61.9279 11.7423 63.2489 10.4536 65.1499 10.4536C66.8252 10.4536 68.114 11.7423 68.114 13.5144V20.0552H70.4983V13.1601C70.4983 10.3246 68.694 8.29468 66.052 8.29468Z" fill="#202022"/>
<path d="M79.681 10.6146V8.5203H76.427V4.00964L74.0426 4.75067V8.5204H71.594V10.6147H74.0426V15.8343C74.0426 18.6697 75.4282 20.0552 78.3924 20.0552H79.6811V17.9286H78.3924C77.007 17.9286 76.427 17.3487 76.427 15.9309V10.6147H79.681V10.6146Z" fill="#202022"/>
<path d="M86.9304 8.29468C83.5151 8.29468 80.9375 10.8725 80.9375 14.2878C80.9375 17.6708 83.5795 20.2807 87.0272 20.2807C89.5725 20.2807 91.5058 18.9274 92.5046 17.0264L90.507 16.1564C89.8625 17.413 88.6059 18.2186 87.1237 18.2186C85.1261 18.2186 83.6441 16.8976 83.3218 15.061H92.859C93.2778 11.3234 90.6358 8.29468 86.9304 8.29468ZM83.3863 13.2245C83.8051 11.549 85.1583 10.3246 86.9304 10.3246C88.767 10.3246 90.0881 11.549 90.4747 13.2245H83.3863Z" fill="#202022"/>
<path d="M14.508 8.3894V10.7872C14.2762 10.7931 14.0959 10.786 13.9016 10.8001C11.3048 10.8516 8.87897 11.6138 6.82073 13.0059C6.09487 13.4788 5.42047 14.0303 4.79292 14.6567L3.09766 12.9637C3.83993 12.2179 4.64777 11.5611 5.49305 11.0085C7.92127 9.36707 10.7967 8.46323 13.7892 8.40582C13.9718 8.39056 14.2013 8.3894 14.508 8.3894Z" fill="#202022"/>
<path d="M14.1288 13.1919C17.0113 13.1919 19.7204 14.3147 21.76 16.3541L20.0647 18.0494C16.8895 14.8766 11.3658 14.8766 8.19526 18.0494L6.5 16.3541C8.53712 14.3147 11.2486 13.1919 14.1288 13.1919Z" fill="#202022"/>
<path d="M14.1288 17.9827C15.7258 17.9827 17.2314 18.6079 18.367 19.7447L16.6718 21.4399C15.3067 20.0748 12.9557 20.0724 11.5859 21.4399L9.89062 19.7447C11.0286 18.6078 12.5342 17.9827 14.1288 17.9827Z" fill="#202022"/>
<path d="M23.4598 9.35046L25.1551 11.0457C24.4081 11.7927 23.6027 12.4495 22.7597 12.9998C20.2449 14.6799 17.3203 15.5826 14.3113 15.6025C14.1966 15.62 14.0116 15.6223 13.7681 15.5955L14.0256 13.2118C14.0912 13.2188 14.1099 13.2188 14.1755 13.2118C16.8356 13.1884 19.3035 12.4262 21.4366 10.999C22.1533 10.5318 22.83 9.98032 23.4598 9.35046Z" fill="#202022"/>
<path d="M20.0647 5.95056L21.76 7.64583C19.7204 9.68535 17.0112 10.8081 14.1288 10.8081C11.2487 10.8081 8.53722 9.68525 6.5 7.64583L8.19526 5.95056C11.3658 9.12336 16.8895 9.12336 20.0647 5.95056Z" fill="#202022"/>
<path d="M11.5857 2.55994C12.9556 3.92976 15.3065 3.92746 16.6716 2.55994L18.3669 4.2552C16.1002 6.52887 12.1711 6.53117 9.89038 4.2552L11.5857 2.55994Z" fill="#202022"/>
</svg>
